<mxfile host="app.diagrams.net" modified="2023-04-03T10:51:48.014Z" agent="Mozilla/5.0 (Windows NT 10.0; Win64; x64) AppleWebKit/537.36 (KHTML, like Gecko) Chrome/111.0.0.0 Safari/537.36" etag="BZiEVGD2FvEOsu-QMc29" version="21.1.4" type="github">
  <diagram name="Page-1" id="Y4OLxSZZKsNkVKAhmD6x">
    <mxGraphModel dx="1050" dy="549" grid="1" gridSize="10" guides="1" tooltips="1" connect="1" arrows="1" fold="1" page="1" pageScale="1" pageWidth="850" pageHeight="1100" math="0" shadow="0">
      <root>
        <mxCell id="0" />
        <mxCell id="1" parent="0" />
        <mxCell id="cj6CbCTjIZBa7a0oKFPv-1" value="" style="group" vertex="1" connectable="0" parent="1">
          <mxGeometry x="60" width="850" height="615" as="geometry" />
        </mxCell>
        <mxCell id="cj6CbCTjIZBa7a0oKFPv-2" value="" style="rounded=0;whiteSpace=wrap;html=1;" vertex="1" parent="cj6CbCTjIZBa7a0oKFPv-1">
          <mxGeometry width="850" height="600" as="geometry" />
        </mxCell>
        <mxCell id="cj6CbCTjIZBa7a0oKFPv-3" value="" style="group" vertex="1" connectable="0" parent="cj6CbCTjIZBa7a0oKFPv-1">
          <mxGeometry width="850" height="50" as="geometry" />
        </mxCell>
        <mxCell id="cj6CbCTjIZBa7a0oKFPv-4" value="" style="rounded=0;whiteSpace=wrap;html=1;" vertex="1" parent="cj6CbCTjIZBa7a0oKFPv-3">
          <mxGeometry width="850" height="50" as="geometry" />
        </mxCell>
        <mxCell id="cj6CbCTjIZBa7a0oKFPv-5" value="nav bar" style="text;html=1;strokeColor=none;fillColor=none;align=center;verticalAlign=middle;whiteSpace=wrap;rounded=0;" vertex="1" parent="cj6CbCTjIZBa7a0oKFPv-3">
          <mxGeometry width="850" height="50" as="geometry" />
        </mxCell>
        <mxCell id="cj6CbCTjIZBa7a0oKFPv-6" value="" style="group" vertex="1" connectable="0" parent="cj6CbCTjIZBa7a0oKFPv-1">
          <mxGeometry y="580" width="850" height="35" as="geometry" />
        </mxCell>
        <mxCell id="cj6CbCTjIZBa7a0oKFPv-7" value="" style="rounded=0;whiteSpace=wrap;html=1;" vertex="1" parent="cj6CbCTjIZBa7a0oKFPv-6">
          <mxGeometry width="850" height="35.000000000000014" as="geometry" />
        </mxCell>
        <mxCell id="cj6CbCTjIZBa7a0oKFPv-8" value="Footer, (school naam of eigen naam)" style="text;html=1;strokeColor=none;fillColor=none;align=center;verticalAlign=middle;whiteSpace=wrap;rounded=0;" vertex="1" parent="cj6CbCTjIZBa7a0oKFPv-6">
          <mxGeometry width="850" height="35.000000000000014" as="geometry" />
        </mxCell>
        <mxCell id="cj6CbCTjIZBa7a0oKFPv-12" value="" style="group" vertex="1" connectable="0" parent="cj6CbCTjIZBa7a0oKFPv-1">
          <mxGeometry x="250" y="160" width="320" height="200" as="geometry" />
        </mxCell>
        <mxCell id="cj6CbCTjIZBa7a0oKFPv-9" value="" style="rounded=0;whiteSpace=wrap;html=1;" vertex="1" parent="cj6CbCTjIZBa7a0oKFPv-12">
          <mxGeometry width="320" height="200" as="geometry" />
        </mxCell>
        <mxCell id="cj6CbCTjIZBa7a0oKFPv-10" value="contact informatie (email, telefoonnummer)" style="text;html=1;strokeColor=none;fillColor=none;align=center;verticalAlign=middle;whiteSpace=wrap;rounded=0;" vertex="1" parent="cj6CbCTjIZBa7a0oKFPv-12">
          <mxGeometry width="320" height="200" as="geometry" />
        </mxCell>
      </root>
    </mxGraphModel>
  </diagram>
</mxfile>
